<?xml version="1.0" standalone="no"?><!DOCTYPE svg PUBLIC "-//W3C//DTD SVG 1.1//EN" "http://www.w3.org/Graphics/SVG/1.1/DTD/svg11.dtd"><svg t="1703457426419" class="icon" viewBox="0 0 1024 1024" version="1.1" xmlns="http://www.w3.org/2000/svg" p-id="8793" xmlns:xlink="http://www.w3.org/1999/xlink" width="200" height="200"><path d="M680.5 794H266.3c-0.6 0-4.5-0.4-1.7 0 2.5 0.4 0.2 0-0.2-0.1-0.6-0.2-3.3-0.6-3.8-1.1 0 0 3.8 2.1 0.8 0.2-0.7-0.4-1.5-0.9-2.2-1.3-2-1.1-0.7 0.4 0.6 0.5-0.3 0-1.2-1-1.4-1.3-0.6-0.6-1.1-1.3-1.8-1.8-1.8-1.4 1.4 2.7 0.5 0.6-0.3-0.8-0.9-1.5-1.3-2.2-1.5-2.5-1.2-0.7-0.1 0.2-0.4-0.4-1.7-4.5-1.4-5.1 0 0 0.2 4.6 0.2 0.8V782v-0.2-1.7-7.8-30.9-104.8-127.1-107.4c0-15.2-0.3-30.5 0-45.7V355c0-2.5-0.6-0.2-0.2 0.8-0.4-0.9 1-3.6 1.2-4.5 0.4-2.3-1.7 2.5-0.3 0.7 0.5-0.7 0.9-1.5 1.3-2.3 0.3-0.6 2-2.8 0.4-0.8-1.7 2.1 0.7-0.7 1.1-1.1 0.4-0.4 1.5-1.7 1.9-1.7 0 0-3.7 2.3-0.6 0.5 0.7-0.4 1.5-0.9 2.2-1.3 1.9-1.2 0.1-0.8-0.8 0.2 0.7-0.9 3.5-0.9 4.4-1.3 2.2-0.9-3.2 0-0.8 0.1-0.7 0 4.2-0.1 2.1-0.1H629.2c17.1 0 34.2-0.3 51.2 0h0.2c-2.6 0 3 0 2.1 0.1 2.4-0.1-2.8-1.2-0.8-0.1 0.5 0.3 1.4 0.3 1.9 0.5 0.6 0.2 1.3 0.4 1.9 0.6 1.3 0.5 0.8 0.3-1.3-0.6 0.6-0.1 4.2 2 4.4 2.6 0.1 0.2-2.5-2.5-1.1-0.8 0.5 0.6 1.2 1.2 1.8 1.8 0.5 0.4 2.2 2.6 0.7 0.6-1.5-2 0.1 0.2 0.4 0.8 0.4 0.7 0.8 1.6 1.3 2.3 1.1 1.5-0.8-3.2-0.1-0.1 0.2 0.8 0.4 1.8 0.7 2.5 0.7 2 1 0.6 0-0.8 0.3 0.4 0.1 2.5 0.1 2.7V781.8c0 0.6-0.4 4.5 0 1.7 0.4-2.7-0.6 2.1-0.8 2.8-0.9 3.6 0.4-0.7 0.4-0.7 0.1 0.3-1 1.9-1.2 2.3-0.1 0.2-1 2-1.4 2.2 1.4-0.7 2-2.1 0.4-0.7-0.6 0.6-1.3 1.2-1.8 1.8-1.4 1.6 0 1 0.7-0.4-0.2 0.5-3.8 2.7-4.4 2.6 0 0 4.2-1.3 0.7-0.4-0.6 0.2-1.3 0.3-1.9 0.5-0.6 0.2-3.5 0.7-0.9 0.3 2.8-0.2-1.6 0.2-1.9 0.2-9.4 0.2-18.4 8.1-18 18 0.4 9.6 7.9 18.2 18 18 27.5-0.6 47.9-22.6 48-49.8v-20.9-94.8-127.6-117.1c0-20.5 0.1-41 0-61.6-0.1-26.8-20.1-48.9-47.3-49.7-4.4-0.1-8.9 0-13.3 0h-403c-20.6 1-38.2 14.3-44.5 34-2.5 7.7-2.1 15.8-2.1 23.7v406.5c0 8.5-0.3 16.9 2.8 25.1 7.1 19.2 24.7 31.8 45.2 32.1h414.3c9.4 0 18.4-8.3 18-18-0.5-9.7-8-17.9-18.1-17.9z" fill="#0ea2ef" p-id="8794"></path><path d="M331.5 326.5v-54.2c0-7.5-0.1-15 0-22.5v-0.5c0-1 0.7-5.6 0.1-3.1-0.6 2.5 0.2-0.3 0.3-0.9 0.3-1.1 0.6-2.1 0.9-3.2 0.5-1.7-0.3-1.7-0.3 0.6 0-0.8 1.5-2.8 1.9-3.5 0.4-0.7 1-1.4 1.4-2.2-1.6 3-1.3 1.5-0.4 0.6 1.5-1.6 3-3.1 4.7-4.5-3 2.5 0.3 0 1.8-0.8 0.2-0.1 4.1-2 1.4-0.8-2.5 1.1 1-0.3 1.6-0.5 1.1-0.3 2.2-0.5 3.3-0.8 2.5-0.8-4.4 0 0 0 0.9 0 1.9-0.1 2.8-0.1h325c24.5 0 48.9-0.1 73.4 0h1.1c0.9 0 1.9 0.1 2.8 0.1 4.3 0.1-2.5-0.8 0 0 1.5 0.5 4.6 0.6 5.8 1.7-1.8-1.7-2.1-1.1-0.7-0.2 0.7 0.4 1.5 0.8 2.3 1.3 0.2 0.1 3.9 2.4 1.4 0.8-2.2-1.4 1.2 1.1 1.7 1.5 0.8 0.8 1.5 1.6 2.2 2.4 0.9 0.9 1.2 2.4-0.4-0.6 0.8 1.5 1.8 3 2.7 4.5 2 3.4-0.2-2.3 0-0.1 0.1 1 0.7 2.2 1 3.2 0.1 0.3 0.6 2.6 0.6 2.6-0.3-2.3-0.3-2.8-0.2-1.4 0.1 0.7 0.1 1.4 0.1 2.1V638.9c0 6.9 0.1 13.9 0 20.9v0.4c0 0.9-0.1 1.9-0.1 2.8-0.1 2.9-0.4-0.7 0.1-0.7 0 0-0.9 3.8-1 3.9-0.1 0.4-0.5 2.1-0.9 2.5 2.3-2.5 0.8-1.5-0.1-0.1-0.7 1.1-4.1 5.8-1.2 2.4-1.2 1.3-2.3 2.6-3.6 3.8-0.3 0.2-3.5 2.6-1.2 1.1 2.3-1.4-1.5 0.9-2 1.1-0.7 0.4-1.6 0.7-2.3 1.2-2 1.4 4-1.1 0 0-1.2 0.3-4 1.9-5.2 1.4 0.7-0.1 1.4-0.2 2.1-0.2-0.7 0.1-1.4 0.1-2.1 0.2-0.7 0-1.4 0.1-2.1 0.1h-39.8c-9.4 0-18.4 8.3-18 18 0.4 9.8 7.9 18 18 18h27.7c13.5 0 26.3-0.2 38.7-6.8 17.8-9.5 28.4-28.7 28.8-48.6v-5.2-88.9-144.6-129-35.7-7c-0.2-15.1-6-30-17.1-40.4-10.6-9.9-24.3-15.2-38.8-15.3H430.5c-26.1 0-52.2-0.1-78.2 0-31.2 0.1-56.4 24.2-56.8 55.6-0.3 19.4 0 38.9 0 58.4v18.5c0 9.4 8.3 18.4 18 18 9.7-0.6 18-8.1 18-18.2z" fill="#0ea2ef" p-id="8795"></path><path d="M236.3 482.1h416c19.1 0 38.4 0.5 57.5 0h0.8c9.4 0 18.4-8.3 18-18-0.4-9.8-7.9-18-18-18h-416c-19.1 0-38.4-0.5-57.5 0h-0.8c-9.4 0-18.4 8.3-18 18 0.4 9.8 7.9 18 18 18zM345.9 412.4H542.1c9.4 0 18.4-8.3 18-18-0.4-9.8-7.9-18-18-18H345.9c-9.4 0-18.4 8.3-18 18 0.4 9.8 7.9 18 18 18zM612.5 412.4c9.4 0 18.4-8.3 18-18-0.4-9.8-7.9-18-18-18-9.4 0-18.4 8.3-18 18 0.4 9.8 7.9 18 18 18z" fill="#0ea2ef" p-id="8796"></path></svg>