<?xml version="1.0" encoding="UTF-8" standalone="no"?>
<svg
   t="1683298182741"
   class="icon"
   viewBox="0 0 1024 1024"
   version="1.1"
   p-id="23910"
   width="200"
   height="200"
   id="svg4"
   sodipodi:docname="accounts.svg"
   inkscape:version="1.2.2 (b0a8486541, 2022-12-01)"
   xmlns:inkscape="http://www.inkscape.org/namespaces/inkscape"
   xmlns:sodipodi="http://sodipodi.sourceforge.net/DTD/sodipodi-0.dtd"
   xmlns="http://www.w3.org/2000/svg"
   xmlns:svg="http://www.w3.org/2000/svg">
  <defs
     id="defs8" />
  <sodipodi:namedview
     id="namedview6"
     pagecolor="#ffffff"
     bordercolor="#000000"
     borderopacity="0.25"
     inkscape:showpageshadow="2"
     inkscape:pageopacity="0.0"
     inkscape:pagecheckerboard="0"
     inkscape:deskcolor="#d1d1d1"
     showgrid="false"
     showguides="true"
     inkscape:zoom="1.4584077"
     inkscape:cx="154.62069"
     inkscape:cy="129.93623"
     inkscape:window-width="1920"
     inkscape:window-height="1006"
     inkscape:window-x="0"
     inkscape:window-y="0"
     inkscape:window-maximized="1"
     inkscape:current-layer="svg4" />
  <path
     id="path2"
     style="fill:#0ea2ef;fill-opacity:1"
     d="m 512,72.3 c -147.22391,0 -266.58,119.35609 -266.58,266.58 0,89.4127 44.17802,168.34997 111.73,216.71 -138.09099,59.90898 -234.75798,197.33149 -234.76,357.45 h 0.6 c 1.50937,21.57216 19.29205,38.66 41.25,38.66 21.95487,0 39.74857,-17.08784 41.26,-38.66 h 0.41 c -0.008,-0.92507 -0.1054,-1.82698 -0.13,-2.75 0,-0.0471 0.01,-0.0929 0.01,-0.14 0,-0.0901 -0.03,-0.1799 -0.03,-0.27 0.0409,-159.12655 119.59349,-290.01865 273.09,-306.69 0.007,-7.9e-4 0.0127,-0.009 0.02,-0.01 0.01,0.001 0.0202,-10e-4 0.03,0 0.007,8.1e-4 0.0135,-8.1e-4 0.02,0 0.0421,-0.007 0.0874,-0.008 0.13,-0.01 0.0505,-10e-4 0.0996,-0.006 0.15,-0.01 0.0411,-0.004 0.0791,-0.004 0.12,-0.01 0.02,-0.003 0.0398,-0.008 0.06,-0.01 0.0202,-0.002 0.0398,10e-4 0.06,0 0.0672,10e-4 0.1276,0.003 0.19,0.03 0.0336,0.0199 0.0649,0.0422 0.09,0.07 10.60778,1.29649 21.32351,2.22 32.28,2.22 147.22391,0 266.58,-119.35609 266.58,-266.58 C 778.58,191.65609 659.22391,72.3 512,72.3 Z m 0,81.66 c 101.92562,0 184.56,82.62439 184.56,184.55 0,101.92561 -82.63438,184.56 -184.56,184.56 -101.92561,0 -184.55,-82.63439 -184.55,-184.56 0,-101.92561 82.62439,-184.55 184.55,-184.55 z m -32.62,449.2 c -0.0201,10e-4 -0.0403,0.007 -0.06,0.01 -0.0414,0.006 -0.0785,0.006 -0.12,0.01 -0.0507,0.004 -0.0991,0.009 -0.15,0.01 0.13143,0.0163 0.26599,0.0216 0.4,0.03 -0.005,-0.005 -0.007,-0.0133 0,-0.02 0.009,-0.009 0.021,-0.012 0.03,-0.02 0.007,-0.007 0.0166,-0.0137 0.02,-0.01 -0.0204,-0.002 -0.0397,-0.01 -0.06,-0.01 -0.0199,10e-4 -0.0399,-10e-4 -0.06,0 z m 0.12,0.01 c 0.003,0.004 0.007,0.0133 0,0.02 -0.009,0.008 -0.021,0.022 -0.03,0.03 -0.007,0.007 -0.015,0.005 -0.02,0 0.0771,0.005 0.15432,0.0108 0.23,0.02 -0.019,-0.0186 -0.0363,-0.0357 -0.06,-0.05 -0.0375,-0.0165 -0.0792,-0.0166 -0.12,-0.02 z m 279.62,22.76 c -22.08484,0 -39.99,17.90516 -39.99,39.99 0,11.19591 4.63316,21.29075 12.05,28.55 l -0.08,0.08 c 53.84597,55.62542 87.14,131.55582 87.14,215.41 0,1.03764 -0.1398,2.04647 -0.15,3.08 h 0.72 c 1.50938,21.57216 19.29411,38.66 41.25,38.66 21.95692,0 39.75062,-17.08784 41.26,-38.66 h 0.29 c 0,-0.65082 -0.096,-1.2802 -0.1,-1.93 0.008,-0.32848 0.1,-0.62947 0.1,-0.96 0,-0.99363 -0.2225,-1.92377 -0.29,-2.9 -1.54213,-104.54016 -44.34724,-198.98543 -112.68,-268.1 -7.31656,-8.06255 -17.77457,-13.22 -29.52,-13.22 z" />
</svg>
