<?xml version="1.0" encoding="UTF-8" standalone="no"?>
<svg
   t="1683298235342"
   class="icon"
   viewBox="0 0 1024 1024"
   version="1.1"
   p-id="26088"
   width="200"
   height="200"
   id="svg124"
   sodipodi:docname="appearance.svg"
   inkscape:version="1.2.2 (b0a8486541, 2022-12-01)"
   inkscape:export-filename="appearance.svg"
   inkscape:export-xdpi="96"
   inkscape:export-ydpi="96"
   xmlns:inkscape="http://www.inkscape.org/namespaces/inkscape"
   xmlns:sodipodi="http://sodipodi.sourceforge.net/DTD/sodipodi-0.dtd"
   xmlns="http://www.w3.org/2000/svg"
   xmlns:svg="http://www.w3.org/2000/svg">
  <defs
     id="defs128" />
  <sodipodi:namedview
     id="namedview126"
     pagecolor="#ffffff"
     bordercolor="#000000"
     borderopacity="0.25"
     inkscape:showpageshadow="2"
     inkscape:pageopacity="0.0"
     inkscape:pagecheckerboard="0"
     inkscape:deskcolor="#d1d1d1"
     showgrid="false"
     inkscape:zoom="2.0625"
     inkscape:cx="194.66667"
     inkscape:cy="170.90909"
     inkscape:window-width="1920"
     inkscape:window-height="1006"
     inkscape:window-x="0"
     inkscape:window-y="0"
     inkscape:window-maximized="1"
     inkscape:current-layer="svg124" />
  <path
     id="path120"
     style="fill:#0ea2ef;fill-opacity:1"
     d="m 597.6,68 c -7.99995,0 -15.20005,2.40002 -21.6,6.8 l -166.4,118 c -3.2,2.4 -7.2,3.6 -11.2,3.6 -2,0 -4.4,-0.4 -6.4,-1.2 l -192.4,-72 c -4.4,-1.6 -8.8,-2.4 -13.2,-2.4 -8.79995,0 -17.60005,3.60005 -24.8,9.6 -9.99995,9.19995 -14,23.20005 -10,35.6 L 210,368.8 c 2,5.99995 0.4,12.4 -3.2,17.2 L 76,550.4 c -8.799955,11.19995 -9.99997,26.00005 -3.6,38.4 6.799965,12.79995 19.60007,20.8 34,21.2 l 201.6,2.4 c 6.39995,0 12.4,3.20005 15.6,8.8 l 108.8,170 c 7.19995,10.79995 19.60005,17.6 33.2,17.6 1.2,0 2,0 2.8,-0.4 13.59995,-0.8 25.6,-10.00005 30.4,-23.2 l 70,-198 c 2.4,-5.99995 7.20005,-10.4 13.2,-12 l 203.2,-58.4 c 12.79995,-4 22.4,-14.80005 24.4,-27.6 2,-13.59995 -3.20005,-27.20005 -14.4,-35.6 L 631.6,328.4 c -5.19995,-4 -8,-10.00005 -7.6,-16.4 L 635.2,107.6 C 636,93.20007 628.79995,79.999965 616,72.8 610.40005,69.600015 603.99995,68 597.6,68 Z m -40,111.2 -7.6,136.4 c -1.2,25.19985 9.6001,49.2001 29.6,64.4 l 109.2,84 -135.6,38.8 c -23.1999,6.79995 -42.00005,24.4001 -50.4,47.6 L 456,682.8 383.2,569.2 c -13.99995,-21.5999 -37.20015,-34.8 -62.8,-34.8 l -134.8,-1.6 87.2,-110 c 15.1999,-19.1999 19.99995,-44.8001 13.2,-68 L 246.8,219.2 376,267.6 c 8.39995,3.2 17.20005,4.8 26.4,4.8 15.5999,0 30.80005,-4.80005 43.6,-14 z" />
  <path
     id="path122"
     style="fill:#0ea2ef;fill-opacity:1"
     d="m 647.6,604 c -11.59995,0 -22.40005,4.80005 -30.8,12.8 -16.7999,16.7999 -16.7999,43.6001 0,60.8 L 888,949.2 c 7.99995,7.99995 18.80005,12.4 30.4,12.4 11.59995,0 22.40005,-4.40005 30.8,-12.4 7.99995,-7.99995 12.4,-18.80005 12.4,-30.4 0,-11.59995 -4.40005,-22.40005 -12.4,-30.4 L 678,616.4 C 670.00005,608.40005 659.19995,604 647.6,604 Z m -34.88,17.86 0.01,0.01 c -0.0185,0.0407 -0.0319,0.0891 -0.05,0.13 -0.008,0.0182 -0.028,0.008 -0.02,-0.01 0.0182,-0.0409 0.0415,-0.0893 0.06,-0.13 z" />
</svg>
