<?xml version="1.0" encoding="UTF-8" standalone="no"?>
<svg
   t="1683301009722"
   class="icon"
   viewBox="0 0 1024 1024"
   version="1.1"
   p-id="49077"
   width="200"
   height="200"
   id="svg4"
   sodipodi:docname="bluetooth.svg"
   inkscape:version="1.2.2 (b0a8486541, 2022-12-01)"
   xmlns:inkscape="http://www.inkscape.org/namespaces/inkscape"
   xmlns:sodipodi="http://sodipodi.sourceforge.net/DTD/sodipodi-0.dtd"
   xmlns="http://www.w3.org/2000/svg"
   xmlns:svg="http://www.w3.org/2000/svg">
  <defs
     id="defs8" />
  <sodipodi:namedview
     id="namedview6"
     pagecolor="#ffffff"
     bordercolor="#000000"
     borderopacity="0.25"
     inkscape:showpageshadow="2"
     inkscape:pageopacity="0.0"
     inkscape:pagecheckerboard="0"
     inkscape:deskcolor="#d1d1d1"
     showgrid="false"
     inkscape:zoom="2.9168155"
     inkscape:cx="91.023927"
     inkscape:cy="116.05122"
     inkscape:window-width="1920"
     inkscape:window-height="1006"
     inkscape:window-x="0"
     inkscape:window-y="0"
     inkscape:window-maximized="1"
     inkscape:current-layer="svg4" />
  <path
     id="path2"
     style="fill:#0ea2ef;fill-opacity:1"
     d="M 545.9,0 C 497.70005,0 458.5,39.200048 458.5,87.4 V 444.1 L 155.1,270.2 c -19.59998,-11.29999 -44.60001,-4.49998 -55.8,15.1 -11.199989,19.59998 -4.49998,44.60001 15.1,55.8 L 415.5,513.7 114.2,688.8 c -19.499981,11.39999 -26.199989,36.40002 -14.8,55.9 11.39999,19.49998 36.30002,26.19999 55.9,14.8 L 458.4,583.3 v 353.3 c 0,15.29998 4.00001,30.40001 11.7,43.7 16.19998,28 45.60003,43.7 75.9,43.7 14.79999,0 29.80001,-3.8 43.6,-11.6 L 886.5,841 c 13.29999,-7.69999 24.30001,-18.70001 32,-32 11.59999,-20.29998 14.69999,-43.80002 8.7,-66.4 -6.09999,-22.59998 -20.60002,-41.50001 -40.9,-53.2 L 579,513.2 886.4,334.6 c 13.29999,-7.69999 24.30001,-18.70001 32,-32 11.59999,-20.29998 14.69999,-43.80002 8.7,-66.4 -5.99999,-22.59998 -20.50002,-41.40001 -40.7,-53.1 L 589.6,11.7 C 576.40001,4.1000076 561.19998,0 545.9,0 Z m -0.1,81.7 c 1,0 2,0.300001 2.9,0.8 l 296.8,171.3 c 1.7,1 2.4,2.5 2.7,3.5 0.2,1 0.4,2.6 -0.6,4.3 -0.5,0.9 -1.2,1.6 -2.2,2.2 L 540.13,441.18 c -0.003,0.004 -0.007,0.006 -0.01,0.01 l -0.02,0.01 c -0.0239,0.0265 -0.0384,0.0615 -0.06,0.09 -0.0122,0.0193 -0.01,0.0102 -0.02,0.03 l -0.01,-0.01 c 0.0119,-0.0217 -0.004,-0.009 0.01,-0.03 0.0217,-0.0285 0.0549,-0.0535 0.08,-0.08 V 441.19 87.4 c 0,-3.099997 2.6,-5.7 5.7,-5.7 z m -5.6,503.5 305.5,175.1 c 1.7,0.9 2.4,2.4 2.7,3.4 0.2,1 0.4,2.6 -0.6,4.3 -0.5,0.9 -1.2,1.6 -2.1,2.1 L 548.8,941.5 c -2.7,1.5 -6.2,0.6 -7.8,-2.1 -0.5,-0.8 -0.8,-1.8 -0.8,-2.8 z" />
</svg>
