<?xml version="1.0" encoding="UTF-8" standalone="no"?>
<svg
   width="16"
   height="16"
   version="1.1"
   id="svg6"
   sodipodi:docname="defaultapps.svg"
   inkscape:version="1.2.2 (b0a8486541, 2022-12-01)"
   xmlns:inkscape="http://www.inkscape.org/namespaces/inkscape"
   xmlns:sodipodi="http://sodipodi.sourceforge.net/DTD/sodipodi-0.dtd"
   xmlns="http://www.w3.org/2000/svg"
   xmlns:svg="http://www.w3.org/2000/svg"
   xmlns:rdf="http://www.w3.org/1999/02/22-rdf-syntax-ns#"
   xmlns:cc="http://creativecommons.org/ns#"
   xmlns:dc="http://purl.org/dc/elements/1.1/">
  <defs
     id="defs10" />
  <sodipodi:namedview
     id="namedview8"
     pagecolor="#ffffff"
     bordercolor="#000000"
     borderopacity="0.25"
     inkscape:showpageshadow="2"
     inkscape:pageopacity="0.0"
     inkscape:pagecheckerboard="0"
     inkscape:deskcolor="#d1d1d1"
     showgrid="false"
     inkscape:zoom="36.460193"
     inkscape:cx="4.868323"
     inkscape:cy="7.6933218"
     inkscape:window-width="1920"
     inkscape:window-height="1006"
     inkscape:window-x="0"
     inkscape:window-y="0"
     inkscape:window-maximized="1"
     inkscape:current-layer="svg6" />
  <metadata
     id="metadata2">
    <rdf:RDF>
      <cc:Work
         rdf:about="">
        <dc:format>image/svg+xml</dc:format>
        <dc:type
           rdf:resource="http://purl.org/dc/dcmitype/StillImage" />
        <dc:title />
      </cc:Work>
    </rdf:RDF>
  </metadata>
  <path
     id="path4"
     style="fill:#0ea2ef;fill-opacity:1"
     d="M 7.984375,0.48242188 C 7.6284858,0.5125338 7.631496,0.81492898 7.5039062,1.5546875 a 6.481,6.4632 0 0 0 -0.71875,0.097656 C 6.469547,0.89062552 6.3606294,0.6257727 6.0625,0.7265625 5.7197306,0.84243226 5.7983927,1.1371647 5.8515625,1.9082031 A 6.481,6.4632 0 0 0 5.1875,2.1816406 C 4.655181,1.538762 4.4714532,1.3169135 4.2148438,1.5019531 3.9253542,1.7107127 4.0807531,1.967017 4.3515625,2.6660156 A 6.481,6.4632 0 0 0 3.7734375,3.1132812 C 3.1026289,2.6174122 2.8724882,2.4443273 2.6679688,2.6855469 2.4357892,2.9592863 2.6520876,3.17132 3.0878906,3.7929688 a 6.481,6.4632 0 0 0 -0.4355468,0.5625 C 1.9492852,4.0940592 1.6911677,3.9419856 1.4863281,4.234375 1.3051485,4.4929644 1.5286456,4.6722404 2.1757812,5.1933594 A 6.481,6.4632 0 0 0 1.8964844,5.8652344 C 1.1568058,5.7951534 0.86759351,5.716722 0.74609375,6.0507812 0.63912397,6.3447408 0.90067278,6.4625164 1.6445312,6.7910156 A 6.481,6.4632 0 0 0 1.5527344,7.5 C 0.8234858,7.6411998 0.52249996,7.6472239 0.5,8.0019531 0.48047204,8.3100525 0.76278342,8.3525883 1.5449219,8.4550781 A 6.481,6.4632 0 0 0 1.6484375,9.2089844 C 0.97835884,9.5025938 0.69007387,9.579185 0.74609375,9.9277344 0.79598865,10.238154 1.0811122,10.210776 1.9003906,10.134766 a 6.481,6.4632 0 0 0 0.2910156,0.697265 C 1.6201074,11.274841 1.3612202,11.419668 1.5,11.742188 c 0.1247798,0.289928 0.394896,0.19257 1.1777344,-0.08399 a 6.481,6.4632 0 0 0 0.4238281,0.546875 c -0.4308692,0.632688 -0.6467457,0.847371 -0.4101563,1.119141 0.2063796,0.23698 0.4354452,0.0635 1.0898438,-0.433594 a 6.481,6.4632 0 0 0 0.5800781,0.445313 c -0.2622594,0.730098 -0.4197731,0.991895 -0.1210937,1.197265 0.2615794,0.17983 0.4391785,-0.04723 0.9609375,-0.707031 L 5.0722656,13.75 a 6.481,6.4632 0 0 0 0.7617188,0.324219 c -0.05055,0.749668 -0.1240055,1.04305 0.2148437,1.15625 0.2933694,0.09806 0.4060919,-0.163405 0.7070313,-0.896485 a 6.481,6.4632 0 0 0 0.734375,0.09766 c 0.1386596,0.829388 0.1822276,1.115284 0.4980468,1.083984 0.3545994,-0.03515 0.3506971,-0.336439 0.4667969,-1.074219 a 6.481,6.4632 0 0 0 0.7402344,-0.0957 c 0.3051494,0.743468 0.4157781,1.0049 0.7109375,0.90625 0.33898,-0.1133 0.265404,-0.404109 0.214844,-1.154297 a 6.481,6.4632 0 0 0 0.673828,-0.273437 c 0.506708,0.640768 0.685061,0.863075 0.943359,0.685547 0.29324,-0.20158 0.144245,-0.459997 -0.109375,-1.160157 a 6.481,6.4632 0 0 0 0.59961,-0.458984 c 0.626858,0.47601 0.856025,0.642726 1.058593,0.410156 0.23069,-0.264888 0.02652,-0.479632 -0.382812,-1.076172 a 6.481,6.4632 0 0 0 0.4375,-0.558593 c 0.765378,0.270378 1.036556,0.363282 1.160156,0.07617 0.13799,-0.32061 -0.119394,-0.465696 -0.683594,-0.902344 a 6.481,6.4632 0 0 0 0.296875,-0.703125 c 0.80505,0.07467 1.089172,0.09909 1.138672,-0.2089846 C 15.309386,9.582541 15.025309,9.5033763 14.369141,9.2167969 A 6.481,6.4632 0 0 0 14.466797,8.453125 C 15.240115,8.3517552 15.5195,8.3085325 15.5,8.0019531 15.477762,7.6511139 15.180468,7.640656 14.46875,7.5039062 A 6.481,6.4632 0 0 0 14.369141,6.7832031 C 15.100189,6.4603037 15.360086,6.3425308 15.253906,6.0507812 15.133326,5.719452 14.845399,5.7936814 14.119141,5.8632812 A 6.481,6.4632 0 0 0 13.837891,5.1816406 C 14.472229,4.6708016 14.693282,4.4907444 14.513672,4.234375 14.309682,3.9432156 14.051767,4.0941562 13.355469,4.3535156 A 6.481,6.4632 0 0 0 12.908203,3.7753906 C 13.378593,3.110652 13.541678,2.8771871 13.298828,2.6796875 13.025968,2.4578379 12.81644,2.667406 12.232422,3.0976562 a 6.481,6.4632 0 0 0 -0.589844,-0.453125 c 0.3113,-0.7598984 0.418809,-1.0258628 0.136719,-1.1640624 -0.3247,-0.1591098 -0.475889,0.1055843 -0.980469,0.6894531 A 6.481,6.4632 0 0 0 10.128906,1.8945312 C 10.198656,1.063113 10.224843,0.77796865 9.9121094,0.73046875 9.56139,0.67726585 9.4904682,0.9667657 9.1992188,1.6464844 A 6.481,6.4632 0 0 0 8.4648438,1.5546875 C 8.340764,0.74054912 8.2977944,0.45602192 7.984375,0.48242188 Z M 7.7265625,2.46875 c 0.7174086,-0.012009 1.5690037,0.1160583 1.8457031,0.2363281 1.2044974,0.3671794 2.3190804,1.0425843 3.2675784,2.6132813 0.17666,0.2925194 0.302225,0.5767379 0.359375,0.8359375 0.05673,0.2725594 0.03546,0.5898143 -0.140625,0.8398437 -0.15087,0.1988196 -0.336928,0.3862563 -0.597656,0.4101563 -0.81139,0.076019 -1.910999,0.032824 -2.7792974,0.023437 C 9.535541,7.4261693 9.3955256,7.3664365 9.3535156,7.3203125 9.0962862,7.1582029 8.9235882,6.8064512 8.6367188,6.7070312 8.1787496,6.4948618 7.9926744,6.67318 7.734375,6.3554688 7.258546,5.5921302 6.7975492,4.8061422 6.375,4.0273438 6.0688206,3.4943548 6.2709527,2.9614275 6.7324219,2.6738281 6.9129815,2.5337685 7.2961033,2.47595 7.7265625,2.46875 Z M 4.5273438,4.1132812 h 0.00195 c 0.037359,-0.00118 0.073293,6.6e-5 0.1113281,0.00391 0.2472596,0.033878 0.503554,0.1029298 0.6523438,0.3183594 0.464439,0.6696486 0.9669664,1.6511109 1.3847656,2.4121093 0.070322,0.1280698 0.085981,0.2786507 0.066406,0.3378907 -0.012082,0.2445077 -0.1556282,0.5011454 -0.1835937,0.7480469 -5.901e-4,0.00521 -0.00147,0.010425 -0.00195,0.015625 -1.456e-4,0.0026 3.26e-5,0.00514 0,0.00781 -8.8e-6,7.815e-4 2.3e-6,0.00119 0,0.00195 -1.024e-4,0.00128 9.54e-5,0.00262 0,0.00391 1.03e-5,0.00225 1.53e-5,0.00547 0,0.00781 l -0.00195,0.00195 c -0.00282,0.046537 -0.0024,0.093123 0.00586,0.1386719 0.039891,0.503149 0.2848154,0.5779952 0.1347656,0.9589844 C 6.2656766,9.8595109 5.8072365,10.644033 5.3359375,11.394531 5.0217981,11.922891 4.4593509,12.009037 3.9824219,11.748047 3.4206829,11.511817 2.6669875,9.7399646 2.6171875,9.2597656 2.3459781,8.0300682 2.3860543,6.7282562 3.2890625,5.1308594 3.4572421,4.83338 3.6439973,4.5832496 3.8417969,4.40625 4.0252265,4.2459504 4.2657942,4.1214912 4.5273438,4.1132812 Z M 7.9960938,7.5 A 0.49961,0.49961 0 0 1 8,7.5 0.49961,0.49961 0 0 1 8.5,8 0.49961,0.49961 0 0 1 8,8.4980469 0.49961,0.49961 0 0 1 7.5,8 0.49961,0.49961 0 0 1 7.9960938,7.5 Z m 2.9511722,1.0878906 c 0.450468,0.00233 0.898988,0.010911 1.341796,0.027344 0.61463,0.00787 0.971906,0.4525149 0.984376,0.9960937 0.07628,0.6045987 -1.081657,2.1444357 -1.472657,2.4277337 -0.929348,0.84973 -2.0773129,1.463769 -3.9121091,1.480469 -0.3417094,0.0031 -0.6521175,-0.03244 -0.9042969,-0.115234 -0.2634894,-0.08995 -0.524841,-0.268035 -0.6503906,-0.546875 -0.094304,-0.23107 -0.161016,-0.48803 -0.048828,-0.72461 C 6.6328754,11.395764 7.2314516,10.470914 7.6816406,9.7285156 7.7573904,9.6035758 7.8783733,9.5146131 7.9394531,9.5019531 8.2099427,9.3631035 8.6023248,9.3935252 8.8339844,9.1972656 9.2497836,8.9111562 9.1907439,8.6601192 9.5957031,8.5996094 10.045313,8.5891944 10.496836,8.5855556 10.947266,8.5878906 Z" />
</svg>
