<?xml version="1.0" encoding="UTF-8" standalone="no"?>
<svg
   t="1683301061474"
   class="icon"
   viewBox="0 0 1024 1024"
   version="1.1"
   p-id="51823"
   width="200"
   height="200"
   id="svg4"
   sodipodi:docname="display.svg"
   inkscape:version="1.2.2 (b0a8486541, 2022-12-01)"
   xmlns:inkscape="http://www.inkscape.org/namespaces/inkscape"
   xmlns:sodipodi="http://sodipodi.sourceforge.net/DTD/sodipodi-0.dtd"
   xmlns="http://www.w3.org/2000/svg"
   xmlns:svg="http://www.w3.org/2000/svg">
  <defs
     id="defs8" />
  <sodipodi:namedview
     id="namedview6"
     pagecolor="#ffffff"
     bordercolor="#000000"
     borderopacity="0.25"
     inkscape:showpageshadow="2"
     inkscape:pageopacity="0.0"
     inkscape:pagecheckerboard="0"
     inkscape:deskcolor="#d1d1d1"
     showgrid="false"
     inkscape:zoom="2.0625"
     inkscape:cx="202.90909"
     inkscape:cy="120"
     inkscape:window-width="1920"
     inkscape:window-height="1006"
     inkscape:window-x="0"
     inkscape:window-y="0"
     inkscape:window-maximized="1"
     inkscape:current-layer="svg4" />
  <path
     id="path2"
     style="fill:#0ea2ef;fill-opacity:1"
     d="m 115.1,140.5 c -27.399973,0 -49.6,22.20003 -49.6,49.6 v 521.2 c 0,27.39997 22.200027,49.6 49.6,49.6 h 793.8 c 27.39997,0 49.6,-22.20003 49.6,-49.6 V 190.2 c 0,-27.39997 -22.20003,-49.7 -49.6,-49.7 z m 0,49.4 H 908.9 V 635.4 H 115.1 Z m 272.3,595.4 c -41.09996,0 -74.4,33.30004 -74.4,74.4 v 23.8 h 421.14 c 0.007,-0.006 0.0125,-0.0133 0.02,-0.02 0.0115,-0.0112 0.0277,-0.0186 0.04,-0.03 V 859.7 c 0,-41.09996 -33.30004,-74.4 -74.4,-74.4 z m 346.8,98.18 c -0.005,0.005 -0.0148,0.005 -0.02,0.01 -0.003,0.003 -0.007,0.007 -0.01,0.01 h 0.03 z" />
</svg>
