<?xml version="1.0" encoding="UTF-8" standalone="no"?>
<svg
   t="1683298568340"
   class="icon"
   viewBox="0 0 1024 1024"
   version="1.1"
   p-id="39310"
   width="200"
   height="200"
   id="svg4"
   sodipodi:docname="dock.svg"
   inkscape:version="1.2.2 (b0a8486541, 2022-12-01)"
   xmlns:inkscape="http://www.inkscape.org/namespaces/inkscape"
   xmlns:sodipodi="http://sodipodi.sourceforge.net/DTD/sodipodi-0.dtd"
   xmlns="http://www.w3.org/2000/svg"
   xmlns:svg="http://www.w3.org/2000/svg">
  <defs
     id="defs8" />
  <sodipodi:namedview
     id="namedview6"
     pagecolor="#ffffff"
     bordercolor="#000000"
     borderopacity="0.25"
     inkscape:showpageshadow="2"
     inkscape:pageopacity="0.0"
     inkscape:pagecheckerboard="0"
     inkscape:deskcolor="#d1d1d1"
     showgrid="false"
     inkscape:zoom="2.0625"
     inkscape:cx="104.48485"
     inkscape:cy="106.90909"
     inkscape:window-width="1920"
     inkscape:window-height="1006"
     inkscape:window-x="0"
     inkscape:window-y="0"
     inkscape:window-maximized="1"
     inkscape:current-layer="svg4" />
  <path
     id="path2"
     style="fill:#0ea2ef;fill-opacity:1"
     d="M 141.07,117.49 C 51.927766,117.50829 6.49,161.64491 6.49,250.33 v 523.34 c 0,88.70337 45.437766,132.84 134.58,132.84 v -0.01 h 741.86 c 89.58108,0 134.58,-44.5672 134.58,-132.85 V 250.33 c 0,-88.2828 -44.99892,-132.84 -134.58,-132.84 z m 1.28,69.02 h 739.3 c 42.42257,0 66.85,22.71971 66.85,67.3 v 516.38 c 0,44.58029 -24.42742,67.3 -66.85,67.3 l -739.3,0.01 c -42.861413,0 -66.849999,-22.70971 -66.85,-67.29 v -516.4 c 0,-44.58029 23.988586,-67.3 66.85,-67.3 z M 270.5,609.08 c -32.14607,0 -45,20.12928 -45,42.84 v 15.87 c 0,22.71071 12.85221,42.85 44.98,42.85 H 753.5 c 14.27111,0 24.19007,-4.39872 31.42,-10.8 -0.0243,-0.10182 -0.0404,-0.20707 -0.06,-0.31 -0.004,-0.0195 0.016,-0.0195 0.02,0 0.019,0.0996 0.0365,0.2013 0.06,0.3 9.04431,-8.01755 13.56,-19.41909 13.56,-32.04 v -15.87 c 0,-22.71071 -12.85393,-42.84 -45,-42.84 z" />
</svg>
