<?xml version="1.0" encoding="UTF-8" standalone="no"?>
<svg
   t="1683301131815"
   class="icon"
   viewBox="0 0 1155 1024"
   version="1.1"
   p-id="57712"
   width="225.58594"
   height="200"
   id="svg4"
   sodipodi:docname="network.svg"
   inkscape:version="1.2.2 (b0a8486541, 2022-12-01)"
   xmlns:inkscape="http://www.inkscape.org/namespaces/inkscape"
   xmlns:sodipodi="http://sodipodi.sourceforge.net/DTD/sodipodi-0.dtd"
   xmlns="http://www.w3.org/2000/svg"
   xmlns:svg="http://www.w3.org/2000/svg">
  <defs
     id="defs8" />
  <sodipodi:namedview
     id="namedview6"
     pagecolor="#ffffff"
     bordercolor="#000000"
     borderopacity="0.25"
     inkscape:showpageshadow="2"
     inkscape:pageopacity="0.0"
     inkscape:pagecheckerboard="0"
     inkscape:deskcolor="#d1d1d1"
     showgrid="false"
     inkscape:zoom="2.0625"
     inkscape:cx="127.27273"
     inkscape:cy="156.84848"
     inkscape:window-width="1920"
     inkscape:window-height="1006"
     inkscape:window-x="0"
     inkscape:window-y="0"
     inkscape:window-maximized="1"
     inkscape:current-layer="svg4" />
  <path
     id="path2"
     style="fill:#0ea2ef;fill-opacity:1"
     d="M 351.91,0.21 A 34.133333,34.133333 0 0 0 317.6,34 v 287.93 a 34.133333,34.133333 0 0 0 34.31,33.84 H 515.1 a 40.776205,40.776205 0 0 1 -33.77,36.26 8.244513,8.244513 0 0 0 -7.06,7.88 8.034462,8.034462 0 0 0 8.11,7.88 h 69.9 v 72.89 H 324.4 a 89.114256,89.114256 0 0 0 -89.64,88.4 v 47.26 H 34.42 A 34.133333,34.133333 0 0 0 0.11,650.19 v 287.93 a 34.133333,34.133333 0 0 0 34.31,33.84 h 163.19 a 40.802462,40.802462 0 0 1 -33.77,36.26 8.218256,8.218256 0 0 0 -7.06,7.88 8.008205,8.008205 0 0 0 8.11,7.87 h 190.75 a 8.060718,8.060718 0 0 0 8.12,-7.87 8.218256,8.218256 0 0 0 -7.04,-7.88 40.697436,40.697436 0 0 1 -33.77,-36.26 H 486.14 A 34.133333,34.133333 0 0 0 520.4,938.12 V 650.19 A 34.133333,34.133333 0 0 0 486.14,616.34 H 285.8 v -47.26 a 38.413128,38.413128 0 0 1 38.62,-38.1 h 506.75 a 38.413128,38.413128 0 0 1 38.63,38.1 v 47.26 H 669.46 a 34.133333,34.133333 0 0 0 -34.32,33.85 v 287.93 a 34.133333,34.133333 0 0 0 34.32,33.84 h 163.18 a 40.802462,40.802462 0 0 1 -33.76,36.26 8.218256,8.218256 0 0 0 -7.07,7.88 8.008205,8.008205 0 0 0 8.12,7.87 h 190.75 a 8.060718,8.060718 0 0 0 8.11,-7.87 8.192,8.192 0 0 0 -7.03,-7.88 40.697436,40.697436 0 0 1 -33.77,-36.26 h 163.18 a 34.133333,34.133333 0 0 0 34.3,-33.84 V 650.19 a 34.133333,34.133333 0 0 0 -34.48,-33.85 H 920.65 v -47.26 a 89.271795,89.271795 0 0 0 -89.63,-88.4 H 603.16 v -72.89 h 69.87 a 8.086974,8.086974 0 0 0 8.11,-7.88 8.244513,8.244513 0 0 0 -7.03,-7.88 40.644923,40.644923 0 0 1 -33.77,-36.26 h 163.18 a 34.133333,34.133333 0 0 0 34.3,-33.84 V 34 A 34.133333,34.133333 0 0 0 803.52,0.21 Z m 3.78,1023.56 h 0.01 c 0.009,0 0.0161,0.01 0.02,0.01 h 0.01 c 0.004,0 0.0201,0.015 0.03,0.02 -0.002,0 -10e-4,0.025 -0.01,0.02 -0.01,0 -0.0157,-0.01 -0.02,-0.01 l -0.01,-0.01 c -0.004,0 -0.0211,-0.01 -0.03,-0.01 -0.009,0 -0.002,-0.015 0,-0.02 z" />
</svg>
