<?xml version="1.0" encoding="UTF-8" standalone="no"?>
<svg
   t="1683298906188"
   class="icon"
   viewBox="0 0 1024 1024"
   version="1.1"
   p-id="43631"
   width="200"
   height="200"
   id="svg4"
   sodipodi:docname="proxy.svg"
   inkscape:version="1.2.2 (b0a8486541, 2022-12-01)"
   xmlns:inkscape="http://www.inkscape.org/namespaces/inkscape"
   xmlns:sodipodi="http://sodipodi.sourceforge.net/DTD/sodipodi-0.dtd"
   xmlns="http://www.w3.org/2000/svg"
   xmlns:svg="http://www.w3.org/2000/svg">
  <defs
     id="defs8" />
  <sodipodi:namedview
     id="namedview6"
     pagecolor="#ffffff"
     bordercolor="#000000"
     borderopacity="0.25"
     inkscape:showpageshadow="2"
     inkscape:pageopacity="0.0"
     inkscape:pagecheckerboard="0"
     inkscape:deskcolor="#d1d1d1"
     showgrid="false"
     inkscape:zoom="2.9168155"
     inkscape:cx="107.82307"
     inkscape:cy="101.65196"
     inkscape:window-width="1920"
     inkscape:window-height="1006"
     inkscape:window-x="0"
     inkscape:window-y="0"
     inkscape:window-maximized="1"
     inkscape:current-layer="svg4" />
  <path
     id="path2"
     style="fill:#0ea2ef;fill-opacity:1"
     d="m 516.63,0 a 186.85562,186.85562 0 0 0 -180.95,191.63 188.80609,188.80609 0 0 0 152.77,189.4 v 69.24 a 407.74705,407.74705 0 0 0 -350.06,281.4 140.72686,140.72686 0 1 0 4.77,281.41 A 137.31352,137.31352 0 0 0 276.28,872.4 140.72686,140.72686 0 0 0 193.54,742.11 351.18324,351.18324 0 0 1 488.45,506.59 V 734.5 A 139.02019,139.02019 0 0 0 383.51,872.4 137.31352,137.31352 0 0 0 516.63,1013.08 137.31352,137.31352 0 0 0 649.75,872.4 140.72686,140.72686 0 0 0 544.77,734.5 V 506.54 a 350.5981,350.5981 0 0 1 295.5,234.15 140.72686,140.72686 0 0 0 -83.34,131.66 133.41257,133.41257 0 1 0 138.19,-140.68 h -0.05 A 407.74705,407.74705 0 0 0 544.72,450.27 V 381.03 A 188.80609,188.80609 0 0 0 698.32,191.63 186.85562,186.85562 0 0 0 516.63,0 Z m -0.05,58.51 A 129.70667,129.70667 0 0 1 642.63,191.63 129.99924,129.99924 0 0 1 516.58,325.05 129.99924,129.99924 0 0 1 390.78,191.63 l -2.25,0.3 A 129.70667,129.70667 0 0 1 516.58,58.51 Z m -3.69,266.87 c 0.1988,2e-4 0.39173,0.007 0.59,0.02 0.0201,0.001 0.0198,0.021 0,0.02 -0.19753,-0.0132 -0.39193,-0.0196 -0.59,-0.02 -0.0198,-10e-5 -0.0198,-0.02 0,-0.02 z m 3.69,464.27 a 80.213333,80.213333 0 0 1 77.93,82.75 77.970286,77.970286 0 1 1 -77.93,-82.75 z m -374.88,0.29 c 3.12076,-0.29257 6.198,-0.29257 9.27,0 h 3.7 c 39.44834,7.31428 67.63905,42.32775 66.42,82.41 h -1.47 l 0.05,0.05 a 80.213333,80.213333 0 0 1 -77.97,82.41 82.456381,82.456381 0 1 1 0,-164.87 z m 735.67,1.12 h 3.32 c 3.12076,-0.29257 6.23677,-0.29257 9.26,0 a 82.46,82.46 0 1 1 0,164.92 v -1.12 l 0.05,-0.05 a 80.213333,80.213333 0 0 1 -77.97,-82.41 81.334857,81.334857 0 0 1 65.34,-81.34 z" />
</svg>
