<?xml version="1.0" encoding="UTF-8" standalone="no"?>
<svg
   t="1683299277956"
   class="icon"
   viewBox="0 0 1024 1024"
   version="1.1"
   p-id="47993"
   width="200"
   height="200"
   id="svg4"
   sodipodi:docname="sound.svg"
   inkscape:version="1.2.2 (b0a8486541, 2022-12-01)"
   xmlns:inkscape="http://www.inkscape.org/namespaces/inkscape"
   xmlns:sodipodi="http://sodipodi.sourceforge.net/DTD/sodipodi-0.dtd"
   xmlns="http://www.w3.org/2000/svg"
   xmlns:svg="http://www.w3.org/2000/svg">
  <defs
     id="defs8" />
  <sodipodi:namedview
     id="namedview6"
     pagecolor="#ffffff"
     bordercolor="#000000"
     borderopacity="0.25"
     inkscape:showpageshadow="2"
     inkscape:pageopacity="0.0"
     inkscape:pagecheckerboard="0"
     inkscape:deskcolor="#d1d1d1"
     showgrid="false"
     inkscape:zoom="2.0625"
     inkscape:cx="100.60606"
     inkscape:cy="139.39394"
     inkscape:window-width="1920"
     inkscape:window-height="1006"
     inkscape:window-x="0"
     inkscape:window-y="0"
     inkscape:window-maximized="1"
     inkscape:current-layer="svg4" />
  <path
     id="path2"
     style="fill:#0ea2ef;fill-opacity:1"
     d="m 510.18,84.9 c -21.91984,0 -43.52624,14.432192 -71.43,38.4 L 249.38,280.67 H 163.55 C 108.6704,280.67 64,325.3404 64,380.22 v 263.11 c 0,54.9116 44.6704,99.548 99.55,99.58 h 85.83 l 189.47,157.47 c 27.80776,23.61584 49.79216,38.72 71.52,38.72 23.71184,0 51.42,-16.2864 51.42,-62.27 V 146.75 c 0,-45.6316 -27.80216,-61.85 -51.61,-61.85 z m -14.79,76.38 v 701.06 c -2.944,-2.464 -6.14,-5.412 -9.66,-8.9 L 286.56,686.24 c -6.20792,-6.23992 -14.66008,-9.73 -23.46,-9.73 h -99.55 c -18.27184,0 -33.18,-14.87616 -33.18,-33.18 V 380.22 c 0,-18.27184 14.90816,-33.18 33.18,-33.18 h 99.55 c 8.79992,0 17.25208,-3.49008 23.46,-9.73 l 199.1,-167.1 c 3.552,-3.552 6.85,-6.498 9.73,-8.93 z m 297.15,11.47 c -8.47592,-0.552 -17.15208,2.13208 -24,8.18 -13.79192,12.09592 -15.16392,33.05808 -3.1,46.85 66.59144,75.90336 128.19,162.84696 128.19,284.03 0,121.18304 -61.59856,208.09264 -128.19,284.06 -12.06392,13.75992 -10.65992,34.75608 3.1,46.82 6.27192,5.50392 14.08408,8.22 21.86,8.22 9.18392,0 18.33608,-3.80208 24.96,-11.29 C 886.84744,758.08464 960,655.32888 960,511.81 960,368.29112 886.87944,265.56936 815.36,183.97 809.29608,177.09008 801.01592,173.302 792.54,172.75 Z M 682.92,285.7 c -8.37992,-1.384 -17.28408,0.44408 -24.74,5.82 -14.91192,10.71992 -18.30792,31.46008 -7.62,46.34 5.82392,8.06392 11.68208,15.86608 17.57,23.61 33.31176,43.96768 59.58,78.72656 59.58,150.31 0,69.08744 -29.66424,109.3404 -64,155.9 l -13.15,17.98 c -10.65592,14.91192 -7.25992,35.65208 7.62,46.34 5.85592,4.224 12.63208,6.24 19.32,6.24 10.33592,0 20.51608,-4.76608 26.98,-13.79 l 12.67,-17.35 c 36.06368,-48.9596 76.9,-104.41072 76.9,-195.29 0,-93.85528 -37.08632,-142.9144 -72.99,-190.37 -5.50392,-7.29592 -11.11008,-14.68408 -16.55,-22.3 -5.35992,-7.45592 -13.21008,-12.056 -21.59,-13.44 z M 516.65,934.91 c 0.11676,0.19623 0.24047,0.38545 0.36,0.58 0.0104,0.0165 -0.01,0.0369 -0.02,0.02 -0.11948,-0.19445 -0.23332,-0.39385 -0.35,-0.59 z" />
</svg>
