<?xml version="1.0" standalone="no"?><!DOCTYPE svg PUBLIC "-//W3C//DTD SVG 1.1//EN" "http://www.w3.org/Graphics/SVG/1.1/DTD/svg11.dtd"><svg t="1703462827759" class="icon" viewBox="0 0 1024 1024" version="1.1" xmlns="http://www.w3.org/2000/svg" p-id="3785" xmlns:xlink="http://www.w3.org/1999/xlink" width="200" height="200"><path d="M783.568 328C724.571 241.095 624.953 184 512 184c-181.15 0-328 146.85-328 328h-72c0-220.914 179.086-400 400-400 135.738 0 255.685 67.611 328 170.994V128c0-8.837 7.163-16 16-16h48a8 8 0 0 1 8 8v248c0 17.673-14.327 32-32 32H632a8 8 0 0 1-8-8v-48c0-8.837 7.163-16 16-16h143.568zM240.432 696C299.429 782.905 399.047 840 512 840c181.15 0 328-146.85 328-328h72c0 220.914-179.086 400-400 400-135.738 0-255.685-67.611-328-170.994V896c0 8.837-7.163 16-16 16h-48a8 8 0 0 1-8-8V656c0-17.673 14.327-32 32-32h248a8 8 0 0 1 8 8v48c0 8.837-7.163 16-16 16H240.432z" p-id="3786" fill="#0ea2ef"></path></svg>