<?xml version="1.0" encoding="UTF-8" standalone="no"?>
<svg
   t="1683298169601"
   class="icon"
   viewBox="0 0 1024 1024"
   version="1.1"
   p-id="22927"
   width="200"
   height="200"
   id="svg8"
   sodipodi:docname="wallpaper.svg"
   inkscape:version="1.2.2 (b0a8486541, 2022-12-01)"
   inkscape:export-filename="wallpaper.svg"
   inkscape:export-xdpi="96"
   inkscape:export-ydpi="96"
   xmlns:inkscape="http://www.inkscape.org/namespaces/inkscape"
   xmlns:sodipodi="http://sodipodi.sourceforge.net/DTD/sodipodi-0.dtd"
   xmlns="http://www.w3.org/2000/svg"
   xmlns:svg="http://www.w3.org/2000/svg">
  <defs
     id="defs12" />
  <sodipodi:namedview
     id="namedview10"
     pagecolor="#ffffff"
     bordercolor="#000000"
     borderopacity="0.25"
     inkscape:showpageshadow="2"
     inkscape:pageopacity="0.0"
     inkscape:pagecheckerboard="0"
     inkscape:deskcolor="#d1d1d1"
     showgrid="false"
     inkscape:zoom="2.9168155"
     inkscape:cx="110.56579"
     inkscape:cy="113.65134"
     inkscape:window-width="1920"
     inkscape:window-height="1006"
     inkscape:window-x="0"
     inkscape:window-y="0"
     inkscape:window-maximized="1"
     inkscape:current-layer="svg8" />
  <path
     id="path2"
     style="fill:#0ea2ef;fill-opacity:1"
     d="m 185.02,105.15 c -72.10099,0 -121.09,47.8777 -121.09,121.09 v 560.01 c 0,73.21128 48.98901,136.24 121.09,136.24 h 650.83 c 72.10099,0 121.09102,-63.02873 121.09,-136.24 V 241.39 c 0,-73.2123 -48.98901,-136.24 -121.09,-136.24 z m 0,45.42 h 650.83 c 49.15441,0 75.67,46.79336 75.67,90.82 v 544.86 c 0,44.02562 -26.51559,90.82 -75.67,90.82 H 185.02 c -49.15441,0 -75.67,-46.79438 -75.67,-90.82 V 226.24 c 0,-47.38103 28.28693,-75.67 75.67,-75.67 z" />
  <path
     id="path4"
     style="fill:#0ea2ef;fill-opacity:1"
     d="m 381.44,453.24 c -11.97293,-0.39832 -23.767,1.49405 -33.01,4.28 -28.04675,8.4525 -75.40555,36.05351 -162.76,177.33 -40.70299,65.89369 -65.70888,161.57872 -74.54,199.66 h 0.01 l 44.21,10.3 c 3.54268,-15.29944 27.74276,-119.42213 68.94,-186.07 75.22009,-121.65871 117.12489,-151.6818 137.24,-157.75 11.52037,-3.47003 25.28961,-2.7619 29.61,0 60.58069,38.60112 64.64565,146.18242 66.11,184.76 0.18829,4.91084 0.32715,8.68468 0.54,11.07 0.0706,0.82581 0.14586,1.4637 0.24,1.96 l 18.98,-3.66 h 0.08 l -19.06,3.66 c 1.11029,8.05136 6.11365,17.37639 16.36,22.76 4.93438,2.59817 10.34282,3.92 16.41,3.92 0.85139,0 1.69256,-0.0209 2.59,-0.07 l -1.89,-31.25 h 0.02 l 1.87,31.25 c 16.62155,-0.99158 38.15146,-11.47563 68.56,-32.7 4.98043,-3.47105 15.89042,-11.49939 15.96,-11.57 0,0 46.79614,-44.85 109.36,-44.85 52.71966,0 136.6041,94.15088 178.84,195.41 4.84023,11.56846 18.13153,17.02567 29.7,12.21 11.56846,-4.84126 17.05126,-18.14153 12.21,-29.71 -38.67275,-92.73703 -132.75803,-223.31898 -220.75,-223.32 -72.39673,0 -123.82671,42.43156 -136.54,53.9 -0.37502,0.28931 -10.15105,7.47378 -14.77,10.7 -16.24375,11.33979 -26.8207,17.17401 -33.86,20.47 -2.06356,-50.57855 -9.38357,-164.08585 -86.57,-213.24 -9.96341,-6.3624 -22.11707,-9.05168 -34.09,-9.45 z M 149.27,843.29 c 0.35675,0.0359 0.72234,0.0653 1.08,0.09 0.038,0.003 0.0283,0.043 -0.01,0.04 -0.35924,-0.0248 -0.71169,-0.0535 -1.07,-0.09 -0.0386,-0.004 -0.0382,-0.044 0,-0.04 z" />
  <path
     id="path6"
     style="fill:#0ea2ef;fill-opacity:1"
     d="m 729.77,286.71 c -50.09795,0 -90.87,40.79395 -90.87,90.94 0,50.12251 40.77103,90.92 90.87,90.92 50.09795,0 90.84898,-40.79749 90.85,-90.92 0,-50.14707 -40.75103,-90.94 -90.85,-90.94 z m 0,45.4 c 25.05051,0 45.45,20.4199 45.45,45.54 0,25.09656 -20.39949,45.52 -45.45,45.52 -25.07302,0 -45.47,-20.42344 -45.47,-45.52 0,-25.12009 20.39698,-45.54 45.47,-45.54 z m 45.15,33.21 c 0.0506,-0.007 0.078,0.0528 0.02,0.11 -0.18133,0.17905 -0.0855,0.0876 -0.29,0.29 -0.0772,0.0764 -0.1472,-0.004 -0.07,-0.08 0.20465,-0.20256 0.10833,-0.1106 0.29,-0.29 0.0193,-0.0191 0.0331,-0.0278 0.05,-0.03 z" />
</svg>
