<svg width="979.487305" height="154.070312" viewBox="0 0 979.487 154.07" fill="none" xmlns="http://www.w3.org/2000/svg" xmlns:xlink="http://www.w3.org/1999/xlink">
	<desc>
			Created with Pixso.
	</desc>
	<defs/>
	<path id="矢量 5" d="M0 76C0 34.0264 34.0264 0 76 0C96.9868 0 115.987 8.50659 129.74 22.2599C135.902 28.3417 144.61 41.0075 154.132 55.6766C149.807 62.6023 145.523 69.4919 141.419 75.9999C129.861 57.6695 119.737 42.367 114.184 37.8162C104.412 28.0442 90.9116 22 76 22C46.1765 22 22 46.1766 22 76C22 105.823 46.1765 130 76 130C90.9116 130 104.412 123.956 114.184 114.184C119.737 109.633 129.861 94.3304 141.419 75.9999C145.523 82.5079 149.807 89.3976 154.132 96.3233C144.61 110.992 135.901 123.658 129.74 129.74C115.987 143.493 96.9868 152 76 152C34.0264 152 0 117.974 0 76ZM346.877 38.582Q344.841 38.582 343.145 37.8226L343.144 37.8224Q341.853 37.2444 340.76 36.2266Q340.079 35.5837 339.581 34.8214Q338.228 32.7487 338.228 29.793Q338.228 26.9139 339.534 24.8694Q340.047 24.0678 340.76 23.3945Q341.888 22.3283 343.228 21.7375Q344.89 21.0039 346.877 21.0039Q348.863 21.0039 350.526 21.7375Q351.865 22.3283 352.994 23.3945Q353.707 24.0678 354.219 24.8694Q355.525 26.9139 355.525 29.793Q355.525 32.7487 354.172 34.8214Q353.675 35.5837 352.994 36.2266Q351.9 37.2444 350.609 37.8224L350.609 37.8226Q348.913 38.582 346.877 38.582ZM167.145 75.9999C162.748 69.0979 158.36 62.1898 154.132 55.6766C172.336 33.0986 200 24.5 217 24.5L217 45.5C207.5 45.5 181.638 53.3546 172.398 67.7727C170.652 70.4972 168.897 73.2481 167.145 75.9999ZM838.776 127.703Q826.788 127.703 816.682 123.342L816.675 123.338Q814.278 122.304 811.987 121.023Q805.51 117.404 800.53 112.318Q796.319 108.019 793.179 102.672Q791.347 99.5378 790.008 96.2057Q786.358 87.1294 786.358 76.5859Q786.358 66.1915 789.922 57.2116Q791.289 53.7695 793.179 50.5352Q796.319 45.1882 800.53 40.8889Q805.51 35.8032 811.987 32.1836Q814.367 30.8468 816.861 29.7762Q826.894 25.4688 838.776 25.4688Q850.872 25.4688 861.051 29.8851L861.052 29.8858Q863.358 30.8863 865.565 32.1133Q871.98 35.6602 876.917 40.6654Q881.179 44.987 884.339 50.3945Q886.051 53.309 887.335 56.4009Q891.194 65.6919 891.194 76.5859Q891.194 87.6274 887.249 97.0101Q885.994 99.9953 884.339 102.812Q881.179 108.22 876.917 112.542Q871.98 117.547 865.565 121.094Q863.445 122.266 861.234 123.231L861.233 123.231Q850.979 127.703 838.776 127.703ZM943.171 127.703Q934.841 127.703 927.108 125.555L927.103 125.553Q924.558 124.846 922.077 123.906Q912.093 120.074 906.468 114.027L909.772 108.578Q915.116 114.168 924.116 117.719Q926.935 118.82 929.844 119.576Q936.222 121.234 943.03 121.234Q957.444 121.234 964.792 115.785Q968.852 112.755 970.668 108.716Q972.14 105.445 972.14 101.512Q972.14 95.9383 969.507 92.2388L969.505 92.2367Q968.933 91.4335 968.237 90.7188Q968.015 90.4878 967.786 90.2631Q964.005 86.5532 958.569 84.5312Q952.839 82.3516 943.03 80.0664Q931.956 77.3242 925.241 74.7227Q921.733 73.3565 918.778 71.224Q916.106 69.2962 913.886 66.7422Q913.621 66.435 913.37 66.1161L913.353 66.0941Q909.21 60.7958 909.21 52.2578Q909.21 48.2243 910.375 44.5614Q911.333 41.552 913.077 38.793Q916.979 32.6758 924.96 29.0898Q932.976 25.4688 944.929 25.4688Q948.111 25.4688 951.252 25.8278L951.255 25.8281Q956.337 26.4091 961.312 27.9297Q969.397 30.3906 975.304 34.5391L972.562 40.4453Q971.607 39.7907 970.623 39.186Q965.366 35.9584 959.237 34.1523Q951.96 31.9727 944.929 31.9727Q930.937 31.9727 923.729 37.5977Q919.975 40.524 918.186 44.3656Q916.558 47.8624 916.558 52.1172Q916.558 57.7344 919.208 61.4722Q919.759 62.2495 920.425 62.9453Q920.537 63.0609 920.651 63.175Q924.492 67.016 930.058 69.1328Q935.823 71.2773 945.772 73.7031Q956.847 76.4453 963.456 79.0469Q967.154 80.4948 970.242 82.7703Q972.703 84.5834 974.776 86.9219Q975.152 87.3396 975.498 87.7808Q979.487 92.8722 979.487 101.09Q979.487 105.109 978.299 108.739Q977.314 111.745 975.515 114.484Q971.542 120.531 963.315 124.117Q955.124 127.703 943.171 127.703ZM326.422 114.906L326.422 127L266.375 127L266.375 27.1914L280.367 27.1914L280.367 114.906L326.422 114.906ZM838.776 120.953Q848.962 120.953 857.54 117.24L857.545 117.237Q859.653 116.324 861.663 115.188Q866.847 112.266 870.92 108.225L870.921 108.224Q874.887 104.291 877.8 99.2969Q879.341 96.6455 880.48 93.8313Q883.706 85.8614 883.706 76.5859Q883.706 67.3623 880.498 59.4371Q879.354 56.6085 877.8 53.9453Q874.831 48.8381 870.77 44.8412L870.769 44.8403Q866.75 40.8866 861.663 38.0195Q859.652 36.8825 857.545 35.9697L857.54 35.9675Q848.962 32.2539 838.776 32.2539Q829.05 32.2539 820.714 35.6592L820.706 35.6625Q818.2 36.6871 815.819 38.0195Q810.504 40.9945 806.359 45.1397Q802.471 49.0278 799.612 53.9453Q798.059 56.6085 796.914 59.4371Q793.706 67.3623 793.706 76.5859Q793.706 85.8614 796.932 93.8313Q798.071 96.6455 799.612 99.2969Q802.415 104.102 806.208 107.925Q810.407 112.158 815.819 115.188Q818.2 116.52 820.706 117.544L820.714 117.548Q829.05 120.953 838.776 120.953ZM732.665 89.5586Q732.665 98.4883 730.063 105.695Q727.462 112.902 722.786 118.105Q720.881 120.211 718.672 121.926L718.669 121.928L718.668 121.929Q715.458 124.42 711.606 126.086Q711.457 126.15 711.308 126.213Q704.961 128.863 697.509 128.863Q690.056 128.863 683.71 126.213Q683.561 126.15 683.411 126.086Q679.857 124.541 676.833 122.284L676.831 122.282Q674.353 120.433 672.231 118.105Q667.556 112.902 664.954 105.695Q662.388 98.4883 662.388 89.5586Q662.388 80.7695 664.954 73.4922Q667.556 66.2148 672.231 61.0469Q674.353 58.7198 676.831 56.8704L676.833 56.868Q679.857 54.6116 683.411 53.0664Q683.694 52.9432 683.98 52.8254Q690.214 50.2539 697.509 50.2539Q704.804 50.2539 711.038 52.8254Q711.323 52.9432 711.606 53.0664Q715.458 54.7319 718.669 57.224L718.672 57.226Q720.881 58.9409 722.786 61.0469Q727.462 66.2148 730.063 73.4922Q732.665 80.7695 732.665 89.5586ZM376.699 54.2969Q381.305 53.1367 388.934 51.8359Q396.562 50.5352 406.512 50.5352Q415.441 50.5352 421.312 53.0664Q426.714 55.3494 430.117 59.3381Q430.434 59.7104 430.734 60.0977Q434.285 64.6328 435.727 70.9961Q437.168 77.3242 437.168 84.9531L437.168 127L423.773 127L423.773 87.8359Q423.773 80.9102 422.824 76.0234Q421.91 71.1367 419.73 68.1133Q418.932 66.9874 417.928 66.0906L417.928 66.09Q416.237 64.5791 413.965 63.7188Q410.379 62.3477 405.07 62.3477Q402.891 62.3477 400.57 62.4883Q398.285 62.6289 396.176 62.8398Q394.102 63.0508 392.449 63.3672Q390.797 63.6484 390.094 63.7891L390.094 127L376.699 127L376.699 54.2969ZM506.289 119.512Q504.566 120.672 499.574 122.465Q494.617 124.258 488.008 124.258Q481.223 124.258 475.246 122.113Q472.271 121.028 469.669 119.359L469.669 119.358Q467.046 117.675 464.805 115.398Q460.34 110.863 457.738 104.113Q455.172 97.3281 455.172 87.9766Q455.172 79.7852 457.598 72.9297Q459.785 66.8359 463.723 62.2422Q464.215 61.668 464.734 61.1172Q465.224 60.5982 465.736 60.1028Q470.117 55.8657 476.16 53.3477Q482.945 50.5352 491.453 50.5352Q500.805 50.5352 507.801 51.9062Q514.797 53.2773 519.543 54.4375L519.543 121.234Q519.543 137.951 511.202 145.769Q510.913 146.04 510.613 146.301Q501.684 154.07 483.543 154.07Q476.477 154.07 470.219 152.91Q463.961 151.785 459.355 150.168L461.781 138.531Q465.824 140.113 471.66 141.309Q477.496 142.539 483.824 142.539Q495.777 142.539 501.016 137.793Q501.096 137.721 501.174 137.648L501.211 137.613Q506.289 132.853 506.289 122.676L506.289 119.512ZM542.587 54.2969Q547.193 53.1367 554.751 51.8359Q562.31 50.5352 572.224 50.5352Q579.431 50.5352 584.318 52.5039Q588.111 53.994 590.943 56.5488Q591.786 57.3092 592.544 58.1641Q593.564 57.4609 595.708 56.1602Q597.888 54.8594 601.052 53.6289Q604.216 52.3984 608.083 51.4844Q611.986 50.5352 616.451 50.5352Q625.099 50.5352 630.548 53.0664Q634.674 54.9439 637.446 58.0348L637.448 58.0367Q638.36 59.0542 639.126 60.2031Q642.22 64.8086 643.31 71.1367Q644.4 77.4648 644.4 84.9531L644.4 127L631.005 127L631.005 87.8359Q631.005 81.1914 630.337 76.4453Q629.705 71.6992 627.876 68.5352Q626.703 66.4636 624.971 65.0998Q624.058 64.3812 622.99 63.8594Q619.896 62.3477 615.009 62.3477Q608.224 62.3477 603.83 64.1406Q599.47 65.9336 597.888 67.375Q599.013 71.1367 599.576 75.6016Q600.173 80.0664 600.173 84.9531L600.173 127L586.779 127L586.779 87.8359Q586.779 81.1914 586.041 76.4453Q585.337 71.6992 583.544 68.5352Q582.371 66.4636 580.639 65.0998Q579.726 64.3812 578.658 63.8594Q575.564 62.3477 570.783 62.3477Q568.779 62.3477 566.458 62.4883Q564.173 62.6289 562.064 62.8398Q559.99 63.0508 558.267 63.3672Q556.544 63.6484 555.982 63.7891L555.982 127L542.587 127L542.587 54.2969ZM353.662 127L340.267 127L340.267 52.1172L353.662 52.1172L353.662 127ZM718.673 89.5586Q718.673 76.9023 712.978 69.4844Q710.506 66.2449 707.243 64.4202Q703.034 62.0664 697.509 62.0664Q692.073 62.0664 687.898 64.3614Q684.567 66.1925 682.04 69.4844Q676.345 76.9023 676.345 89.5586Q676.345 102.215 682.04 109.633Q684.567 112.925 687.898 114.756Q692.073 117.051 697.509 117.051Q703.034 117.051 707.243 114.697Q710.506 112.872 712.978 109.633Q718.673 102.215 718.673 89.5586ZM506.148 63.9297Q504.145 63.3672 500.734 62.875Q497.359 62.3477 491.594 62.3477Q483.844 62.3477 478.649 65.9913L478.649 65.9916Q476.61 67.4221 474.965 69.4141Q474.815 69.5948 474.669 69.7785Q469.129 76.7453 469.129 88.1172Q469.129 94.5859 470.781 99.2266Q472.434 103.832 475.246 106.855Q477.354 109.122 479.938 110.5Q480.8 110.96 481.715 111.32Q483.903 112.154 486.165 112.493L486.167 112.494L486.167 112.494Q487.721 112.727 489.309 112.727Q494.617 112.727 499.082 111.215Q503.547 109.703 506.148 107.699L506.148 63.9297ZM154.132 96.3233C158.36 89.8101 162.748 82.902 167.145 75.9999C168.898 78.7518 170.652 81.5027 172.398 84.2273C181.638 98.6454 207.5 106.5 217 106.5L217 127.5C200 127.5 172.336 118.901 154.132 96.3233Z" fill-rule="evenodd" fill="#0061FE"/>
</svg>
