<?xml version="1.0" encoding="UTF-8" standalone="no"?>
<svg
   inkscape:version="1.2.2 (b0a8486541, 2022-12-01)"
   sodipodi:docname="cyber-logo.svg"
   id="svg63"
   viewBox="0 0 63.853241 70.111504"
   version="1.1"
   height="140.22301"
   width="127.70648"
   inkscape:export-filename="../../../../logo_txt.png"
   inkscape:export-xdpi="960"
   inkscape:export-ydpi="960"
   xmlns:inkscape="http://www.inkscape.org/namespaces/inkscape"
   xmlns:sodipodi="http://sodipodi.sourceforge.net/DTD/sodipodi-0.dtd"
   xmlns:xlink="http://www.w3.org/1999/xlink"
   xmlns="http://www.w3.org/2000/svg"
   xmlns:svg="http://www.w3.org/2000/svg"
   xmlns:rdf="http://www.w3.org/1999/02/22-rdf-syntax-ns#"
   xmlns:cc="http://creativecommons.org/ns#"
   xmlns:dc="http://purl.org/dc/elements/1.1/">
  <sodipodi:namedview
     inkscape:current-layer="g14"
     inkscape:window-maximized="1"
     inkscape:window-y="0"
     inkscape:window-x="0"
     inkscape:cy="72.75"
     inkscape:cx="32.25"
     inkscape:zoom="2"
     showgrid="false"
     id="namedview65"
     inkscape:window-height="737"
     inkscape:window-width="1280"
     inkscape:pageshadow="2"
     inkscape:pageopacity="0"
     guidetolerance="10"
     gridtolerance="10"
     objecttolerance="10"
     borderopacity="1"
     bordercolor="#666666"
     pagecolor="#ffffff"
     inkscape:document-rotation="0"
     inkscape:showpageshadow="2"
     inkscape:pagecheckerboard="0"
     inkscape:deskcolor="#d1d1d1" />
  <metadata
     id="metadata2">
    <rdf:RDF>
      <cc:Work
         rdf:about="">
        <dc:format>image/svg+xml</dc:format>
        <dc:type
           rdf:resource="http://purl.org/dc/dcmitype/StillImage" />
        <dc:title />
      </cc:Work>
    </rdf:RDF>
  </metadata>
  <defs
     id="defs39">
    <linearGradient
       inkscape:collect="always"
       id="linearGradient8178">
      <stop
         style="stop-color:#5a91fa;stop-opacity:1;"
         offset="0"
         id="stop8174" />
      <stop
         style="stop-color:#3a0ea8;stop-opacity:0.99607843;"
         offset="1"
         id="stop8176" />
    </linearGradient>
    <rect
       x="-12.638077"
       y="121.06247"
       width="153.02811"
       height="33.177265"
       id="rect6121" />
    <linearGradient
       inkscape:collect="always"
       id="linearGradient5725">
      <stop
         style="stop-color:#b5daff;stop-opacity:1;"
         offset="0"
         id="stop5721" />
      <stop
         style="stop-color:#008be3;stop-opacity:1;"
         offset="1"
         id="stop5723" />
    </linearGradient>
    <linearGradient
       inkscape:collect="always"
       id="linearGradient5709">
      <stop
         style="stop-color:#5a91fa;stop-opacity:0;"
         offset="0"
         id="stop5705" />
      <stop
         style="stop-color:#053ea9;stop-opacity:1;"
         offset="1"
         id="stop5707" />
    </linearGradient>
    <linearGradient
       inkscape:collect="always"
       id="linearGradient5693">
      <stop
         style="stop-color:#0a0fa8;stop-opacity:1;"
         offset="0"
         id="stop5689" />
      <stop
         style="stop-color:#555af5;stop-opacity:0;"
         offset="1"
         id="stop5691" />
    </linearGradient>
    <linearGradient
       inkscape:collect="always"
       id="linearGradient399">
      <stop
         style="stop-color:#6d0ab8;stop-opacity:1;"
         offset="0"
         id="stop395" />
      <stop
         style="stop-color:#6b25da;stop-opacity:0.84127307;"
         offset="1"
         id="stop397" />
    </linearGradient>
    <style
       id="style14"
       type="text/css" />
    <style
       id="style16"
       type="text/css" />
    <linearGradient
       inkscape:collect="always"
       xlink:href="#linearGradient399"
       id="linearGradient401"
       x1="203.23784"
       y1="3.726521"
       x2="342.45685"
       y2="50.435787"
       gradientUnits="userSpaceOnUse" />
    <linearGradient
       inkscape:collect="always"
       xlink:href="#linearGradient5693"
       id="linearGradient5695"
       x1="268.97699"
       y1="275.478"
       x2="480.082"
       y2="275.478"
       gradientUnits="userSpaceOnUse" />
    <linearGradient
       inkscape:collect="always"
       xlink:href="#linearGradient5709"
       id="linearGradient5711"
       x1="75.067001"
       y1="242.10455"
       x2="200.17021"
       y2="187.50143"
       gradientUnits="userSpaceOnUse" />
    <linearGradient
       inkscape:collect="always"
       xlink:href="#linearGradient5725"
       id="linearGradient5727"
       x1="15.387294"
       y1="291.54514"
       x2="479.80914"
       y2="-14.196366"
       gradientUnits="userSpaceOnUse" />
    <linearGradient
       inkscape:collect="always"
       xlink:href="#linearGradient8178"
       id="linearGradient8180"
       x1="-19.877985"
       y1="576.07159"
       x2="620.84283"
       y2="580.40894"
       gradientUnits="userSpaceOnUse" />
  </defs>
  <!-- color: #eeeeee -->
  <g
     id="g14"
     transform="matrix(0.11429166,0,0,0.10742181,2.4866464,-1.3051147e-7)">
    <path
       d="M 233.431,195.5 403.325,25.607 C 412.774,16.157 406.082,0 392.718,0 H 209.342 C 202.578,0 196.65,4.527 194.871,11.053 L 144.567,195.5 Z"
       fill="#555af5"
       id="path2"
       style="fill:#555af5;fill-opacity:0.840796" />
    <path
       d="M 392.718,0 H 209.343 c -3.199,0 -6.203,1.022 -8.678,2.779 L 313.409,115.523 403.325,25.607 C 412.775,16.157 406.082,0 392.718,0 Z"
       fill="#660ef1"
       id="path4"
       style="fill:url(#linearGradient401);fill-opacity:1" />
    <path
       d="M 357.841,231.046 492.189,96.697 C 501.638,87.248 494.946,71.09 481.582,71.09 H 275.19 c -3.978,0 -7.794,1.58 -10.607,4.393 L 144.567,195.5 85.32,165.877 c -6.766,-3.383 -14.993,-1.198 -19.189,5.096 l -48.199,72.298 c -6.646,9.968 0.5,23.32 12.481,23.32 h 78.609 l 14.354,43.062 c 2.042,6.125 7.774,10.257 14.23,10.257 h 131.371 l 187.667,187.667 c 9.449,9.449 25.607,2.757 25.607,-10.607 V 327.629 c 0,-4.844 -2.339,-9.39 -6.281,-12.206 z"
       fill="#64c3ff"
       id="path6"
       style="fill:url(#linearGradient5727);fill-opacity:1" />
    <path
       d="M 481.582,71.091 H 275.19 c -2.167,0 -4.279,0.484 -6.213,1.365 V 319.91 l 187.667,187.667 c 9.449,9.449 25.607,2.757 25.607,-10.606 V 327.629 c 0,-4.844 -2.339,-9.39 -6.281,-12.206 L 357.842,231.046 492.189,96.698 c 9.449,-9.45 2.757,-25.607 -10.607,-25.607 z"
       fill="#5a91fa"
       id="path8" />
    <path
       d="M 144.567,195.5 85.32,165.877 c -3.284,-1.642 -6.909,-1.962 -10.253,-1.148 l 48.308,144.925 c 2.041,6.123 7.77,10.254 14.224,10.256 h 131.377 z"
       fill="#5a91fa"
       id="path10"
       style="fill:url(#linearGradient5711);fill-opacity:1" />
    <path
       d="m 268.977,319.91 h 211.105 c -1.044,-1.735 -2.419,-3.277 -4.113,-4.487 L 357.841,231.046 Z"
       fill="#555af5"
       id="path12"
       style="fill:url(#linearGradient5695);fill-opacity:1" />
    <text
       xml:space="preserve"
       transform="matrix(4.3747724,0,0,4.6545483,-23.985661,-41.890947)"
       id="text6119"
       style="white-space:pre;shape-inside:url(#rect6121);fill:#555af5;fill-opacity:0.840796" />
    <text
       xml:space="preserve"
       style="font-size:54.1499px;fill:url(#linearGradient8180);fill-opacity:1;stroke-width:4.51249"
       x="-32.790585"
       y="610.13269"
       id="text6127"
       transform="scale(0.96948026,1.0314805)"><tspan
         sodipodi:role="line"
         id="tspan6125"
         style="font-style:normal;font-variant:normal;font-weight:normal;font-stretch:normal;font-size:120.333px;font-family:Ubuntu;-inkscape-font-specification:'Ubuntu, Normal';font-variant-ligatures:normal;font-variant-caps:normal;font-variant-numeric:normal;font-variant-east-asian:normal;fill:url(#linearGradient8180);fill-opacity:1;stroke-width:4.51249"
         x="-32.790585"
         y="610.13269">Lingmo OS</tspan></text>
  </g>
</svg>
